Coordinates
nRows=108
nColumns=2
inDegrees=yes
endheader
time	ankle_angle_r	
2.64819	 -0.353689	
2.71976	 -0.368585	
2.79133	 -0.410137	
2.8629	 -0.392318	
2.93448	 -0.380867	
3.00605	 -0.395616	
3.07762	 -0.370210	
3.14919	 -0.337817	
3.22077	 -0.339868	
3.29234	 -0.354525	
3.36391	 -0.364255	
3.43548	 -0.372458	
3.50706	 -0.387258	
3.57863	 -0.413996	
3.6502	 -0.405029	
3.72177	 -0.371522	
3.79335	 -0.372919	
3.86492	 -0.375690	
3.93649	 -0.340627	
4.00806	 -0.328387	
4.07964	 -0.376713	
4.15121	 -0.380468	
4.22278	 -0.339097	
4.29435	 -0.361154	
4.36593	 -0.400938	
4.4375	 -0.384358	
4.50907	 -0.369679	
4.58065	 -0.394438	
4.65222	 -0.385277	
4.72379	 -0.347328	
4.79536	 -0.333771	
4.86694	 -0.360856	
4.93851	 -0.389806	
5.01008	 -0.344346	
5.08165	 -0.326806	
5.15323	 -0.379402	
5.2248	 -0.362060	
5.29637	 -0.285909	
5.36794	 -0.280277	
5.43952	 -0.339244	
5.51109	 -0.311448	
5.58266	 -0.251903	
5.65423	 -0.305811	
5.72581	 -0.347847	
5.79738	 -0.311733	
5.86895	 -0.315704	
5.94052	 -0.369727	
6.0121	 -0.382828	
6.08367	 -0.351821	
6.15524	 -0.352621	
6.22681	 -0.390112	
6.29839	 -0.381489	
6.36996	 -0.340702	
6.44153	 -0.375162	
6.5131	 -0.423713	
6.58468	 -0.396137	
6.65625	 -0.365805	
6.72782	 -0.403273	
6.7994	 -0.422783	
6.87097	 -0.357170	
6.94254	 -0.350887	
7.01411	 -0.397135	
7.08569	 -0.369355	
7.15726	 -0.336990	
7.22883	 -0.357184	
7.3004	 -0.373287	
7.37198	 -0.326316	
7.44355	 -0.303198	
7.51512	 -0.344460	
7.58669	 -0.356187	
7.65827	 -0.357555	
7.72984	 -0.366154	
7.80141	 -0.378421	
7.87298	 -0.398455	
7.94456	 -0.404294	
8.01613	 -0.410643	
8.0877	 -0.414804	
8.15927	 -0.400474	
8.23085	 -0.386748	
8.30242	 -0.415669	
8.37399	 -0.436247	
8.44556	 -0.391128	
8.51714	 -0.361623	
8.58871	 -0.377359	
8.66028	 -0.373250	
8.73185	 -0.334805	
8.80343	 -0.309567	
8.875	 -0.319275	
8.94657	 -0.336303	
9.01815	 -0.342788	
9.08972	 -0.360527	
9.16129	 -0.387839	
9.23286	 -0.362942	
9.30444	 -0.344562	
9.37601	 -0.393681	
9.44758	 -0.396393	
9.51915	 -0.339571	
9.59073	 -0.343427	
9.6623	 -0.396719	
9.73387	 -0.390506	
9.80544	 -0.349032	
9.87702	 -0.341758	
9.94859	 -0.376272	
10.0202	 -0.411644	
10.0917	 -0.406539	
10.1633	 -0.443080	
10.2349	 -0.501881	
10.3065	 -0.463463	
